<svg width="48" height="48" xmlns="http://www.w3.org/2000/svg">
 <g>
  <title>background</title>
  <rect x="-1" y="-1" width="4.158892" height="4.158892" id="canvas_background" fill="none"/>
 </g>

 <g>
  <title>Layer 1</title>
  <path d="m0,0l48,0l0,48l-48,0l0,-48z" fill="none" id="svg_1"/>
  <path d="m32,2l-24,0c-2.21,0 -4,1.79 -4,4l0,28l4,0l0,-28l24,0l0,-4zm6,8l-22,0c-2.21,0 -4,1.79 -4,4l0,28c0,2.21 1.79,4 4,4l22,0c2.21,0 4,-1.79 4,-4l0,-28c0,-2.21 -1.79,-4 -4,-4zm0,32l-22,0l0,-28l22,0l0,28z" id="svg_2" fill="#000000"/>
 </g>
</svg>