<svg width="32" height="32" xmlns="http://www.w3.org/2000/svg">

 <g>
  <title>background</title>
  <rect fill="none" id="canvas_background" height="402" width="582" y="-1" x="-1"/>
 </g>
 <g>
  <title>Layer 1</title>
  <polyline id="svg_2" stroke-width="2" stroke-miterlimit="10" stroke-linejoin="round" stroke-linecap="round" stroke="#FFFFFF" points="   649,137.999 675,137.999 675,155.999 661,155.999  " fill="none"/>
  <polyline id="svg_3" stroke-width="2" stroke-miterlimit="10" stroke-linejoin="round" stroke-linecap="round" stroke="#FFFFFF" points="   653,155.999 649,155.999 649,141.999  " fill="none"/>
  <polyline id="svg_4" stroke-width="2" stroke-miterlimit="10" stroke-linejoin="round" stroke-linecap="round" stroke="#FFFFFF" points="   661,156 653,162 653,156  " fill="none"/>
  <path fill="#929292" id="svg_7" d="m25,30l-22,0c-0.552,0 -1,-0.447 -1,-1l0,-18c0,-0.552 0.448,-1 1,-1s1,0.448 1,1l0,17l20,0l0,-20l-21,0c-0.552,0 -1,-0.448 -1,-1s0.448,-1 1,-1l22,0c0.553,0 1,0.448 1,1l0,22c0,0.553 -0.447,1 -1,1z"/>
  <path fill="#929292" id="svg_9" d="m29,22c-0.553,0 -1,-0.447 -1,-1l0,-17l-17,0c-0.552,0 -1,-0.448 -1,-1s0.448,-1 1,-1l18,0c0.553,0 1,0.448 1,1l0,18c0,0.553 -0.447,1 -1,1z"/>
 </g>
</svg>